<svg xmlns="http://www.w3.org/2000/svg" xmlns:xlink="http://www.w3.org/1999/xlink" viewBox="0 0 1080 1080"><defs><style>.cls-1{fill:#f0f8ff;}.cls-2{fill:url(#linear-gradient);}.cls-3{fill:url(#linear-gradient-2);}.cls-4{fill:url(#linear-gradient-3);}.cls-5{fill:url(#linear-gradient-4);}.cls-6{fill:url(#linear-gradient-5);}.cls-7{fill:#83be81;}.cls-8{fill:#537951;}</style><linearGradient id="linear-gradient" x1="549.11" y1="-2.37" x2="540.11" y2="1067.13" gradientUnits="userSpaceOnUse"><stop offset="0" stop-color="#216a32"/><stop offset="0.5" stop-color="#0e5f1c"/><stop offset="1" stop-color="#18421c"/></linearGradient><linearGradient id="linear-gradient-2" x1="350.14" y1="1082.26" x2="350.14" y2="-1.1" xlink:href="#linear-gradient"/><linearGradient id="linear-gradient-3" x1="513.47" y1="1082.26" x2="513.47" y2="-1.1" xlink:href="#linear-gradient"/><linearGradient id="linear-gradient-4" x1="679.59" y1="1082.26" x2="679.59" y2="-1.1" xlink:href="#linear-gradient"/><linearGradient id="linear-gradient-5" x1="865.03" y1="1082.26" x2="865.03" y2="-1.1" xlink:href="#linear-gradient"/></defs><title>XLHAr1</title><g id="Layer_3" data-name="Layer 3"><rect class="cls-1" width="1080" height="1080"/></g><g id="Layer_4" data-name="Layer 4"><polygon class="cls-2" points="1080 0 1080 1080 0 1080 1080 0"/></g><g id="Layer_5" data-name="Layer 5"><path class="cls-1" d="M840.81,975.93H232.86a31.68,31.68,0,0,1-20.39-7.43l-17.95-15.08a22.55,22.55,0,0,0-12.19-5.16l-67.56-7c-74.46-101.41-91.14-229.77-7.71-344l70.32-5.41a30.93,30.93,0,0,0,21.5-11.15l9.88-12a20.69,20.69,0,0,1,15.76-7.5l619.19-5a28.7,28.7,0,0,1,20.15,8L884.28,584a31.25,31.25,0,0,0,20,8.71L964.54,596c70.6,114.24,75.74,234.9-11.55,341.45l-54.16,1.1a22.3,22.3,0,0,0-15,6.25l-24.48,23.67A26.67,26.67,0,0,1,840.81,975.93Z"/><path class="cls-3" d="M268.54,853.52v-15l15-2.62,53.76-70.46-49.83-67.71-15.14-2.62V680h56.27v15.14l-16.33,1.55,38.39,53.52,36.48-53.52-16.69-1.55V680h56.62v15.14l-15.85,2.62-47.09,67.71,52.21,70.46,15.38,2.62v15h-57v-15L391.57,837l-41.13-56.39-41,56.39,15.85,1.55v15Z"/><path class="cls-4" d="M450.94,853.52v-15l19.43-3.33V698.42l-19.43-3.33V680h62.35v15.14l-19.44,3.33v137.1h61.4L558,808.1h18v45.42Z"/><path class="cls-5" d="M595.19,853.52v-15l19.43-3.33V698.42l-19.43-3.33V680h62.35v15.14l-19.43,3.33v60h83v-60l-19.43-3.33V680H764v15.14l-19.43,3.33V835.17L764,838.5v15H701.65v-15l19.43-3.33v-58.3h-83v58.3l19.43,3.33v15Z"/><path class="cls-6" d="M782,853.52v-15l12.88-1.79L855.56,680H875.7l59.61,156.76,12.76,1.79v15H898.24v-15l13.11-2.26-11.44-32H830.4l-11.8,32,13.11,2.26v15Zm55.67-68.9h55.08L867.24,714l-1.43-3.93h-.72L863.66,714Z"/></g><g id="Layer_2" data-name="Layer 2"><path class="cls-7" d="M254.59,777.43l-71.83,71.83A470.41,470.41,0,0,1,68.7,573.75H170.27A369.48,369.48,0,0,0,254.59,777.43Z"/><path class="cls-8" d="M254.59,302.57a369.48,369.48,0,0,0-84.32,203.68H68.7A470.41,470.41,0,0,1,182.76,230.74Z"/><path class="cls-7" d="M506,68.72V170.29a369.52,369.52,0,0,0-203.7,84.53L230.47,183A470.43,470.43,0,0,1,506,68.72Z"/><path class="cls-7" d="M849.26,182.76l-71.83,71.83A369.59,369.59,0,0,0,573.5,170.24V68.68A470.41,470.41,0,0,1,849.26,182.76Z"/><path class="cls-1" d="M1011.3,506.25H909.73A369.46,369.46,0,0,0,825.18,302.3L897,230.47A470.43,470.43,0,0,1,1011.3,506.25Z"/></g></svg>